<?xml version="1.0" encoding="utf-8"?>
<!-- Generator: Adobe Illustrator 23.0.4, SVG Export Plug-In . SVG Version: 6.00 Build 0)  -->
<svg version="1.1" id="Layer_1" xmlns="http://www.w3.org/2000/svg" xmlns:xlink="http://www.w3.org/1999/xlink" x="0px" y="0px"
	 viewBox="0 0 800 800" style="enable-background:new 0 0 800 800;" xml:space="preserve">
<style type="text/css">
	.st0{fill-rule:evenodd;clip-rule:evenodd;fill:#0984BD;}
	.st1{fill-rule:evenodd;clip-rule:evenodd;fill:#F6881F;}
	.st2{fill:#F6881F;}
	.st3{fill:#0984BD;}
</style>
<g>
	<g>
		<g>
			<g>
				<g>
					<g>
						<g>
							<path class="st0" d="M296.03,392.34l-1.63,9.51h-8.95l4.74-27.29h12.89c1.99,0,3.68,0.12,5.06,0.36
								c1.38,0.24,2.5,0.61,3.37,1.1c0.87,0.49,1.5,1.1,1.89,1.84c0.4,0.73,0.59,1.6,0.59,2.62c0,0.53-0.07,1.15-0.19,1.86
								c-0.28,1.57-0.89,2.96-1.84,4.19c-0.95,1.22-2.25,2.05-3.92,2.48c0.56,0.2,1.06,0.41,1.5,0.63c0.44,0.21,0.82,0.49,1.14,0.81
								c0.31,0.33,0.56,0.73,0.74,1.21c0.18,0.48,0.27,1.1,0.27,1.85c0,0.79-0.09,1.69-0.27,2.73c-0.18,0.96-0.32,1.76-0.42,2.39
								c-0.1,0.63-0.15,1.12-0.15,1.48c0,0.6,0.23,0.91,0.68,0.91l-0.11,0.83h-9.06c-0.05-0.25-0.08-0.54-0.08-0.87
								c0-0.43,0.03-0.98,0.09-1.65c0.06-0.66,0.17-1.42,0.32-2.25c0.15-0.84,0.23-1.54,0.23-2.12c0-0.96-0.3-1.63-0.89-2.03
								c-0.59-0.39-1.69-0.58-3.28-0.58H296.03z M297.09,386.35h3.52c1.39,0,2.47-0.19,3.26-0.57c0.79-0.38,1.25-1.05,1.4-2.01
								c0.03-0.13,0.04-0.31,0.04-0.57c0-0.78-0.29-1.35-0.87-1.72c-0.58-0.37-1.34-0.55-2.28-0.55h-4.17L297.09,386.35z"/>
							<path class="st0" d="M326.55,381.99h7.2l-0.53,3.11c1.11-1.21,2.24-2.12,3.37-2.75c1.14-0.62,2.47-0.93,3.98-0.93
								c2.22,0,3.85,0.52,4.89,1.56c1.04,1.03,1.55,2.54,1.55,4.51c0,0.78-0.08,1.6-0.23,2.46l-2.05,11.9h-7.89l1.82-10.5
								c0.08-0.46,0.12-0.89,0.12-1.33c0-0.68-0.16-1.25-0.48-1.71c-0.32-0.46-0.9-0.68-1.76-0.68c-1.21,0-2.1,0.36-2.65,1.08
								c-0.56,0.72-0.94,1.73-1.14,3.01l-1.74,10.12h-7.88L326.55,381.99z"/>
							<path class="st0" d="M354.37,402.51v0.11c0,0.28,0.11,0.53,0.34,0.76c0.28,0.33,0.82,0.49,1.63,0.49
								c1.14,0,1.99-0.29,2.58-0.87c0.58-0.58,1-1.58,1.25-3l0.3-1.63c-0.66,0.58-1.47,1.09-2.44,1.52
								c-0.97,0.43-2.18,0.65-3.62,0.65c-1.19,0-2.23-0.19-3.13-0.57c-0.89-0.38-1.65-0.9-2.25-1.55c-0.61-0.66-1.06-1.44-1.37-2.35
								c-0.3-0.91-0.45-1.88-0.45-2.92c0-0.33,0.02-0.66,0.06-0.98c0.04-0.33,0.08-0.67,0.13-1.02c0.2-1.21,0.56-2.42,1.08-3.64
								c0.51-1.21,1.21-2.29,2.08-3.24c0.87-0.95,1.92-1.72,3.15-2.31c1.23-0.59,2.66-0.89,4.3-0.89c1.22,0,2.3,0.29,3.24,0.86
								c0.95,0.58,1.7,1.34,2.26,2.3l0.41-2.6h6.94l-2.77,16c-0.26,1.49-0.58,2.88-0.97,4.17c-0.39,1.29-1.02,2.41-1.88,3.37
								c-0.86,0.96-2.03,1.71-3.52,2.26c-1.49,0.54-3.46,0.81-5.92,0.81c-1.72,0-3.17-0.15-4.36-0.45
								c-1.19-0.31-2.15-0.71-2.88-1.21c-0.74-0.51-1.27-1.09-1.61-1.75c-0.34-0.65-0.51-1.34-0.51-2.05v-0.26H354.37z
								 M359.07,386.66c-0.58,0-1.09,0.11-1.52,0.34c-0.43,0.23-0.79,0.55-1.1,0.95c-0.3,0.4-0.55,0.89-0.74,1.44
								c-0.19,0.56-0.34,1.16-0.44,1.79c-0.03,0.18-0.05,0.35-0.06,0.5c-0.02,0.15-0.02,0.31-0.02,0.46c0,0.79,0.2,1.47,0.59,2.04
								c0.39,0.58,1.03,0.87,1.92,0.9h0.19c0.56,0,1.05-0.12,1.5-0.35c0.44-0.22,0.82-0.53,1.14-0.91c0.31-0.38,0.58-0.82,0.78-1.32
								c0.2-0.5,0.36-1.01,0.46-1.54c0.07-0.41,0.11-0.83,0.11-1.26c0-0.84-0.21-1.55-0.61-2.15c-0.4-0.6-1.11-0.9-2.12-0.9H359.07z
								"/>
							<path class="st1" d="M389.34,385.34c0-0.09,0.01-0.18,0.02-0.25c0.01-0.07,0.02-0.15,0.02-0.25c0-1.2-0.34-2.12-1.02-2.76
								c-0.68-0.65-1.64-0.97-2.88-0.97c-1.51,0-2.79,0.62-3.84,1.88c-1.05,1.26-1.79,3.14-2.22,5.64
								c-0.09,0.48-0.17,0.94-0.21,1.38c-0.05,0.44-0.07,0.87-0.07,1.27c0,0.62,0.06,1.2,0.19,1.72c0.13,0.52,0.36,0.99,0.68,1.38
								c0.32,0.39,0.75,0.7,1.27,0.93c0.53,0.23,1.19,0.34,2.01,0.34c1.36,0,2.45-0.42,3.28-1.25c0.82-0.83,1.43-1.87,1.81-3.12
								h8.14c-0.48,1.67-1.17,3.17-2.06,4.48c-0.89,1.31-1.96,2.43-3.19,3.35c-1.23,0.92-2.6,1.62-4.12,2.11
								c-1.52,0.49-3.13,0.73-4.82,0.73c-1.86,0-3.51-0.24-4.95-0.72c-1.43-0.48-2.65-1.17-3.64-2.08
								c-0.99-0.91-1.75-2.01-2.26-3.32c-0.52-1.3-0.77-2.78-0.77-4.43c0-0.47,0.02-0.97,0.07-1.49c0.05-0.51,0.12-1.04,0.21-1.59
								c0.36-2.08,1.01-3.95,1.97-5.63c0.96-1.67,2.12-3.09,3.48-4.26c1.36-1.17,2.88-2.07,4.57-2.71c1.69-0.63,3.43-0.95,5.22-0.95
								c3.75,0,6.56,0.82,8.41,2.47c1.85,1.65,2.78,3.98,2.78,6.99v0.54c0,0.17-0.02,0.35-0.04,0.54H389.34z"/>
							<path class="st1" d="M405.62,393.25c-0.02,0.12-0.04,0.25-0.05,0.38c-0.02,0.13-0.02,0.25-0.02,0.38
								c0,0.96,0.31,1.72,0.95,2.29c0.63,0.57,1.42,0.85,2.35,0.85c0.63,0,1.24-0.14,1.82-0.43c0.58-0.29,1.06-0.72,1.44-1.31h7.55
								c-0.56,1.24-1.28,2.27-2.18,3.11c-0.9,0.83-1.89,1.51-2.98,2.03c-1.09,0.51-2.23,0.88-3.43,1.1
								c-1.2,0.21-2.38,0.32-3.54,0.32c-1.42,0-2.72-0.18-3.9-0.53c-1.19-0.35-2.21-0.88-3.07-1.59c-0.86-0.7-1.53-1.57-2.01-2.6
								c-0.48-1.02-0.72-2.2-0.72-3.54c0-0.33,0.02-0.67,0.06-1.01c0.03-0.34,0.08-0.68,0.13-1.04c0.28-1.62,0.82-3.09,1.63-4.41
								c0.81-1.33,1.8-2.45,2.97-3.37c1.18-0.92,2.49-1.64,3.94-2.14c1.46-0.51,2.98-0.76,4.57-0.76c1.59,0,3,0.23,4.23,0.68
								c1.22,0.45,2.26,1.09,3.09,1.9c0.83,0.81,1.47,1.8,1.89,2.96c0.43,1.16,0.64,2.44,0.64,3.83c0,0.86-0.1,1.83-0.3,2.92H405.62
								z M413.47,389.23c0.02-0.13,0.04-0.31,0.04-0.57c0-0.81-0.28-1.49-0.83-2.05c-0.56-0.56-1.25-0.83-2.09-0.83
								c-1.19,0-2.15,0.31-2.88,0.93c-0.73,0.62-1.2,1.46-1.4,2.52H413.47z"/>
							<path class="st1" d="M423.53,382.11h7.2l-0.53,3.11c1.11-1.21,2.24-2.12,3.38-2.75c1.14-0.62,2.46-0.93,3.98-0.93
								c2.23,0,3.85,0.52,4.89,1.56c1.04,1.03,1.56,2.54,1.56,4.51c0,0.78-0.08,1.6-0.23,2.46l-2.04,11.9h-7.89l1.82-10.5
								c0.07-0.46,0.11-0.89,0.11-1.33c0-0.68-0.16-1.25-0.48-1.7c-0.32-0.46-0.9-0.68-1.76-0.68c-1.21,0-2.1,0.36-2.66,1.08
								c-0.55,0.72-0.93,1.73-1.14,3.01L428,401.97h-7.89L423.53,382.11z"/>
							<path class="st1" d="M456.31,401.82c-0.89,0.05-1.7,0.09-2.45,0.11c-0.74,0.03-1.43,0.03-2.06,0.03
								c-1.19,0-2.19-0.06-2.99-0.17c-0.81-0.11-1.45-0.32-1.94-0.61c-0.48-0.29-0.82-0.68-1.02-1.16c-0.2-0.47-0.3-1.08-0.3-1.82
								c0-0.45,0.03-0.97,0.09-1.54c0.06-0.57,0.15-1.2,0.28-1.88l1.44-8.3h-2.81l0.76-4.55h2.92l1.1-6.18h7.77l-1.1,6.18h3.79
								l-0.76,4.55h-3.79l-1.25,7.23c-0.05,0.23-0.09,0.43-0.12,0.62c-0.03,0.19-0.04,0.36-0.04,0.52c0,0.48,0.15,0.82,0.46,1.03
								c0.31,0.2,0.87,0.3,1.71,0.3h1.25L456.31,401.82z"/>
							<path class="st1" d="M461.41,382.11h7.17l-0.68,4.02h0.08c1.59-3.06,3.89-4.59,6.9-4.59c0.18,0,0.35,0.01,0.51,0.04
								c0.16,0.03,0.34,0.05,0.51,0.08l-1.41,7.89c-0.25-0.05-0.51-0.1-0.77-0.15c-0.27-0.05-0.54-0.07-0.82-0.07
								c-1.62,0-2.9,0.43-3.85,1.29c-0.95,0.86-1.61,2.37-1.99,4.51l-1.18,6.86h-7.89L461.41,382.11z"/>
							<path class="st1" d="M486.45,402.01l-0.05-2.73c-1.29,1.06-2.56,1.77-3.81,2.14c-1.25,0.36-2.62,0.55-4.11,0.55
								c-0.83,0-1.63-0.09-2.39-0.28c-0.76-0.19-1.42-0.49-1.97-0.9c-0.56-0.4-1-0.9-1.33-1.5c-0.32-0.59-0.49-1.31-0.49-2.14
								c0-0.35,0.04-0.74,0.12-1.17c0.25-1.49,0.8-2.66,1.65-3.51c0.85-0.85,1.83-1.48,2.96-1.91c1.12-0.43,2.31-0.73,3.56-0.89
								c1.25-0.16,2.41-0.31,3.49-0.45c1.07-0.14,1.99-0.33,2.73-0.57c0.74-0.24,1.17-0.68,1.27-1.31c0-0.05,0.01-0.09,0.02-0.13
								c0.01-0.04,0.02-0.08,0.02-0.13c0-0.31-0.09-0.55-0.27-0.72c-0.18-0.17-0.39-0.31-0.63-0.4c-0.24-0.09-0.49-0.15-0.77-0.19
								c-0.28-0.04-0.51-0.06-0.68-0.06c-0.28,0-0.57,0.02-0.89,0.06c-0.32,0.04-0.62,0.13-0.89,0.27
								c-0.28,0.14-0.53,0.33-0.78,0.59c-0.24,0.25-0.41,0.59-0.51,1.03h-7.58c0.18-1.07,0.53-2,1.06-2.83
								c0.53-0.82,1.28-1.52,2.25-2.08c0.98-0.57,2.17-1.01,3.58-1.31c1.42-0.31,3.11-0.45,5.08-0.45c1.8,0,3.27,0.12,4.41,0.36
								c1.15,0.24,2.06,0.59,2.71,1.04c0.66,0.45,1.11,1,1.37,1.63c0.25,0.63,0.38,1.34,0.38,2.13c0,0.48-0.03,0.97-0.1,1.47
								c-0.06,0.51-0.15,1.04-0.25,1.59l-1.59,9.29c-0.07,0.43-0.11,0.78-0.11,1.06c0,0.28,0.05,0.53,0.15,0.74
								c0.1,0.21,0.29,0.46,0.57,0.74l-0.03,0.99H486.45z M482.81,397.49c0.68,0,1.28-0.12,1.8-0.37c0.52-0.25,0.95-0.6,1.3-1.05
								c0.36-0.44,0.63-0.96,0.84-1.55c0.2-0.59,0.34-1.23,0.42-1.91c-0.71,0.3-1.42,0.52-2.14,0.67c-0.72,0.14-1.39,0.29-2.01,0.45
								c-0.62,0.16-1.15,0.4-1.59,0.7c-0.45,0.3-0.72,0.77-0.82,1.4v0.23c0,0.43,0.18,0.78,0.55,1.04
								C481.52,397.37,482.07,397.49,482.81,397.49"/>
							<polygon class="st1" points="495.96,401.97 500.69,374.68 508.58,374.68 503.85,401.97 							"/>
							<polygon class="st0" points="312.89,401.86 317.33,385.74 323.04,385.74 320.74,401.86 							"/>
							<path class="st1" d="M325.92,378.54c0,0,0,0-0.02-0.03c-0.02-0.03-0.06-0.09-0.11-0.17c-0.11-0.15-0.3-0.37-0.57-0.62
								c-0.55-0.48-1.45-1.04-2.9-1.31c-0.71-0.13-1.33-0.13-1.86-0.08c-1.27,0.13-2.05,0.65-2.32,0.86
								c-0.09,0.07-0.11,0.08-0.11,0.08c-0.36,0.37-0.95,0.36-1.32,0c-0.36-0.36-0.36-0.95,0-1.32c0.09-0.09,1.28-1.24,3.55-1.48
								c0.7-0.07,1.5-0.06,2.38,0.1c3.61,0.64,4.87,2.96,4.93,3.11c0.23,0.46,0.05,1.02-0.41,1.25c-0.1,0.05-0.21,0.08-0.32,0.09
								C326.47,379.08,326.09,378.9,325.92,378.54"/>
							<path class="st1" d="M323.6,380.66c0,0,0,0-0.06-0.09c-0.06-0.08-0.16-0.2-0.31-0.33c-0.3-0.26-0.79-0.57-1.62-0.73
								c-0.41-0.07-0.75-0.08-1.04-0.05c-0.71,0.07-1.13,0.36-1.27,0.47c-0.04,0.03-0.04,0.04-0.04,0.04c-0.3,0.3-0.79,0.3-1.1,0
								c-0.3-0.3-0.3-0.79,0-1.1c0.07-0.08,0.83-0.8,2.25-0.95c0.43-0.04,0.93-0.03,1.47,0.06v0c2.24,0.4,3.05,1.85,3.1,1.97
								c0.19,0.38,0.04,0.85-0.35,1.04c-0.09,0.04-0.18,0.07-0.27,0.08C324.06,381.12,323.75,380.96,323.6,380.66"/>
							<path class="st1" d="M322.94,382.56c-0.01,0.96-0.91,1.72-2.02,1.72c-1.12-0.01-2.01-0.79-2.01-1.74
								c0-0.96,0.91-1.73,2.03-1.72C322.04,380.83,322.94,381.61,322.94,382.56"/>
							<path class="st2" d="M512.8,374.71c-1.98,0-3.58,1.61-3.58,3.58c0,1.98,1.61,3.59,3.58,3.59c1.98,0,3.58-1.61,3.58-3.59
								C516.38,376.32,514.78,374.71,512.8,374.71 M512.8,381.24c-1.62,0-2.94-1.32-2.94-2.94c0-1.62,1.32-2.94,2.94-2.94
								c1.62,0,2.94,1.32,2.94,2.94C515.74,379.92,514.42,381.24,512.8,381.24 M514.46,379.48c-0.03-0.15-0.04-0.33-0.04-0.53
								c0-0.16-0.02-0.29-0.06-0.4c-0.04-0.11-0.09-0.2-0.16-0.27c-0.03-0.03-0.06-0.06-0.09-0.08c0.03-0.02,0.06-0.05,0.08-0.08
								c0.08-0.08,0.15-0.18,0.2-0.31c0.06-0.13,0.08-0.29,0.08-0.48c0-0.34-0.11-0.62-0.34-0.81c-0.22-0.19-0.54-0.29-0.97-0.29
								h-1.65c-0.09,0-0.16,0.07-0.16,0.16v3.47c0,0.09,0.07,0.16,0.16,0.16h0.61c0.09,0,0.16-0.07,0.16-0.16v-1.27h0.73
								c0.12,0,0.21,0.02,0.28,0.04c0.06,0.02,0.1,0.06,0.14,0.11c0.04,0.06,0.07,0.13,0.08,0.22c0.02,0.11,0.03,0.24,0.03,0.38
								c0,0.09,0,0.18,0.01,0.28c0.01,0.12,0.05,0.22,0.1,0.32c0.03,0.05,0.08,0.08,0.14,0.08h0.65c0.06,0,0.12-0.04,0.15-0.1
								c0.03-0.06,0.01-0.13-0.03-0.17C514.53,379.73,514.49,379.65,514.46,379.48 M512.27,377.05h0.83c0.07,0,0.13,0,0.2,0.02
								c0.05,0.01,0.09,0.03,0.13,0.05c0.03,0.02,0.06,0.06,0.08,0.1c0.02,0.05,0.03,0.12,0.03,0.2c0,0.14-0.03,0.24-0.1,0.3
								c-0.07,0.06-0.18,0.1-0.33,0.1h-0.83V377.05z"/>
						</g>
					</g>
				</g>
			</g>
		</g>
	</g>
</g>
<g>
	<g>
		<path class="st3" d="M422.07,413.32h10.39V416h-7.26v3.19h7.11v2.68h-7.11v3.41h7.26v2.71h-10.39V413.32z"/>
		<path class="st3" d="M438.02,418.13v9.86h-3.12v-14.68h3.21l6.8,9.5v-9.5h3.12v14.68h-3.01L438.02,418.13z"/>
		<path class="st3" d="M458.04,413.07c3.04,0,4.95,1.47,6.07,3.21l-2.6,1.41c-0.68-1.03-1.94-1.85-3.48-1.85
			c-2.66,0-4.6,2.05-4.6,4.82s1.94,4.82,4.6,4.82c1.34,0,2.53-0.55,3.17-1.12v-1.78h-3.92v-2.68h7v5.61
			c-1.5,1.67-3.59,2.77-6.25,2.77c-4.29,0-7.81-2.99-7.81-7.61C450.23,416.02,453.75,413.07,458.04,413.07z"/>
		<path class="st3" d="M475.97,425.46h-6.56l-0.92,2.53h-3.43l5.68-14.68h3.92l5.65,14.68h-3.41L475.97,425.46z M470.25,422.75h4.86
			l-2.42-6.73L470.25,422.75z"/>
		<path class="st3" d="M488.03,413.07c3.04,0,4.95,1.47,6.07,3.21l-2.6,1.41c-0.68-1.03-1.94-1.85-3.48-1.85
			c-2.66,0-4.6,2.05-4.6,4.82s1.94,4.82,4.6,4.82c1.34,0,2.53-0.55,3.17-1.12v-1.78h-3.92v-2.68h7v5.61
			c-1.5,1.67-3.59,2.77-6.25,2.77c-4.29,0-7.81-2.99-7.81-7.61C480.22,416.02,483.74,413.07,488.03,413.07z"/>
		<path class="st3" d="M496.76,413.32h10.39V416h-7.26v3.19h7.11v2.68h-7.11v3.41h7.26v2.71h-10.39V413.32z"/>
	</g>
</g>
</svg>
